<?xml version="1.0" encoding="utf-8"?>
<!-- Generator: Adobe Illustrator 16.0.0, SVG Export Plug-In . SVG Version: 6.00 Build 0)  -->
<!DOCTYPE svg PUBLIC "-//W3C//DTD SVG 1.1//EN" "http://www.w3.org/Graphics/SVG/1.1/DTD/svg11.dtd">
<svg version="1.1" id="Layer_1" xmlns="http://www.w3.org/2000/svg" xmlns:xlink="http://www.w3.org/1999/xlink" x="0px" y="0px"
	 width="1800px" height="900px" viewBox="0 0 1800 900" enable-background="new 0 0 1800 900" xml:space="preserve">
<g>
	
		<linearGradient id="SVGID_1_" gradientUnits="userSpaceOnUse" x1="1044.0313" y1="462.0244" x2="1634.8086" y2="462.0244" gradientTransform="matrix(-1 0 0 1 1790.1094 0)">
		<stop  offset="0" style="stop-color:#EE3724"/>
		<stop  offset="0.1129" style="stop-color:#F15523"/>
		<stop  offset="0.2632" style="stop-color:#F36F21"/>
		<stop  offset="0.4214" style="stop-color:#F58020"/>
		<stop  offset="0.589" style="stop-color:#F68C1F"/>
		<stop  offset="0.7721" style="stop-color:#F7931E"/>
		<stop  offset="1" style="stop-color:#F8951D"/>
	</linearGradient>
	<path fill="url(#SVGID_1_)" d="M157.499,285.531c-1.448,13.545-2.199,27.304-2.199,41.223c0,65.202,16.387,126.54,45.299,180.154
		c0.912,1.689,1.85,3.379,2.789,5.069c0.806,1.448,1.637,2.925,2.469,4.344c1.287,2.254,2.601,4.48,3.942,6.681
		c0.778,1.314,1.583,2.601,2.387,3.915c0.858,1.396,1.743,2.815,2.655,4.209c0.778,1.236,1.556,2.44,2.36,3.677
		c0.537,0.833,1.1,1.662,1.636,2.466c0.912,1.368,1.851,2.764,2.789,4.131c2.951,4.318,5.982,8.557,9.146,12.74
		c1.099,1.502,2.226,2.977,3.379,4.479c6.84,8.905,14.108,17.515,21.725,25.748c1.207,1.342,2.44,2.656,3.674,3.943
		c1.314,1.396,2.656,2.79,3.997,4.158c7.589,7.776,15.502,15.231,23.763,22.313c1.18,1.045,2.36,2.064,3.567,3.057
		c8.77,7.403,17.917,14.43,27.357,21.001c0.188,0.136,0.349,0.27,0.536,0.401h0.055c1.367,0.967,2.762,1.934,4.157,2.872
		c21.778,14.696,45.166,27.223,69.841,37.225c44.066,17.865,92.263,27.708,142.739,27.708c65.496,0,127.13-16.549,180.932-45.729
		c-30.897,15.046-65.576,23.467-102.241,23.467c-57.558,0-110.259-20.785-151.026-55.277
		c148.72-39.293,261.715-166.395,280.194-322.49c1.744-6.866,2.656-14.082,2.656-21.484c0-1.904-0.054-3.809-0.187-5.686
		c-0.027-0.617-0.082-1.234-0.135-1.851c-0.053,0.617-0.081,1.261-0.081,1.877c-59.166,4.104-114.577,21.751-163.177,49.86
		c-7.59-12.982-11.935-28.081-11.935-44.201c0-27.732,12.848-52.461,32.937-68.526c-97.789,4.425-179.94,68.902-210.489,157.383
		c-34.304-86.604-118.815-147.862-217.65-147.862c-2.252,0-4.506,0.027-6.731,0.107"/>
	
		<linearGradient id="SVGID_2_" gradientUnits="userSpaceOnUse" x1="1028.7168" y1="646.9727" x2="1073.293" y2="646.9727" gradientTransform="matrix(-1 0 0 1 1790.1094 0)">
		<stop  offset="0" style="stop-color:#EE3724"/>
		<stop  offset="0.1129" style="stop-color:#F15523"/>
		<stop  offset="0.2632" style="stop-color:#F36F21"/>
		<stop  offset="0.4214" style="stop-color:#F58020"/>
		<stop  offset="0.589" style="stop-color:#F68C1F"/>
		<stop  offset="0.7721" style="stop-color:#F7931E"/>
		<stop  offset="1" style="stop-color:#F8951D"/>
	</linearGradient>
	<path fill="url(#SVGID_2_)" d="M761.392,632.771c-14.133,10.459-29.019,19.953-44.575,28.403
		C732.775,653.394,747.714,643.846,761.392,632.771z"/>
	
		<linearGradient id="SVGID_3_" gradientUnits="userSpaceOnUse" x1="1044.0313" y1="493.4629" x2="1397.2852" y2="493.4629" gradientTransform="matrix(-1 0 0 1 1790.1094 0)">
		<stop  offset="0" style="stop-color:#EE3724"/>
		<stop  offset="0.1129" style="stop-color:#F15523"/>
		<stop  offset="0.2632" style="stop-color:#F36F21"/>
		<stop  offset="0.4214" style="stop-color:#F58020"/>
		<stop  offset="0.589" style="stop-color:#F68C1F"/>
		<stop  offset="0.7721" style="stop-color:#F7931E"/>
		<stop  offset="1" style="stop-color:#F8951D"/>
	</linearGradient>
	<path fill="url(#SVGID_3_)" d="M406.019,557.645c26.82-97.063,91.191-178.57,176.479-227.894
		c48.6-28.107,104.011-45.756,163.177-49.859c0.054-0.027,0.134-0.027,0.216-0.027c0.133,1.877,0.187,3.781,0.187,5.685
		c0,7.404-0.912,14.618-2.656,21.485C724.943,463.13,611.948,590.233,463.228,629.525c40.767,34.491,93.469,55.277,151.026,55.277
		c36.665,0,71.343-8.424,102.241-23.47c-53.802,29.182-115.436,45.729-180.932,45.729c-50.477,0-98.673-9.842-142.739-27.705"/>
	
		<linearGradient id="SVGID_4_" gradientUnits="userSpaceOnUse" x1="1044.4336" y1="428.1221" x2="1766.7949" y2="428.1221" gradientTransform="matrix(-1 0 0 1 1790.1094 0)">
		<stop  offset="0" style="stop-color:#EE3724"/>
		<stop  offset="0.1129" style="stop-color:#F15523"/>
		<stop  offset="0.2632" style="stop-color:#F36F21"/>
		<stop  offset="0.4214" style="stop-color:#F58020"/>
		<stop  offset="0.589" style="stop-color:#F68C1F"/>
		<stop  offset="0.7721" style="stop-color:#F7931E"/>
		<stop  offset="1" style="stop-color:#F8951D"/>
	</linearGradient>
	<path fill="url(#SVGID_4_)" d="M463.228,629.505c148.72-39.293,261.715-166.395,280.194-322.49
		c1.047-8.958,1.797-18.024,2.253-27.144c-59.166,4.104-114.577,21.751-163.177,49.86c-7.59-12.982-11.935-28.081-11.935-44.201
		c0-27.732,12.848-52.461,32.937-68.526c-97.789,4.425-179.94,68.902-210.489,157.383
		c-34.304-86.604-118.815-147.862-217.65-147.862c-2.252,0-4.506,0.027-6.731,0.107c-55.413,1.556-105.996,22.396-145.315,56.002
		c19.391-9.522,41.223-14.859,64.29-14.859c25.318,0,49.135,6.438,69.895,17.755c-1.448,13.545-2.199,27.304-2.199,41.223
		c0,65.202,16.387,126.54,45.299,180.154c0.912,1.689,1.85,3.379,2.789,5.069c0.806,1.448,1.637,2.925,2.469,4.344
		c1.287,2.254,2.601,4.48,3.942,6.681c0.778,1.314,1.583,2.601,2.387,3.915c0.858,1.396,1.743,2.815,2.655,4.209
		c0.778,1.236,1.556,2.44,2.36,3.677c0.537,0.833,1.1,1.662,1.636,2.466c0.912,1.368,1.851,2.764,2.789,4.131
		c2.951,4.318,5.982,8.557,9.146,12.74c1.099,1.502,2.226,2.977,3.379,4.479c6.84,8.905,14.108,17.515,21.725,25.748
		c1.207,1.342,2.44,2.656,3.674,3.943c1.314,1.396,2.656,2.79,3.997,4.158c7.589,7.776,15.502,15.231,23.763,22.313
		c1.18,1.045,2.36,2.064,3.567,3.057c8.77,7.403,17.917,14.43,27.357,21.001c0.188,0.136,0.349,0.27,0.536,0.401h0.374"/>
	
		<linearGradient id="SVGID_5_" gradientUnits="userSpaceOnUse" x1="1028.7168" y1="646.9727" x2="1073.293" y2="646.9727" gradientTransform="matrix(-1 0 0 1 1790.1094 0)">
		<stop  offset="0" style="stop-color:#EE3724"/>
		<stop  offset="0.1129" style="stop-color:#F15523"/>
		<stop  offset="0.2632" style="stop-color:#F36F21"/>
		<stop  offset="0.4214" style="stop-color:#F58020"/>
		<stop  offset="0.589" style="stop-color:#F68C1F"/>
		<stop  offset="0.7721" style="stop-color:#F7931E"/>
		<stop  offset="1" style="stop-color:#F8951D"/>
	</linearGradient>
	<path fill="url(#SVGID_5_)" d="M761.392,632.771c-14.133,10.459-29.019,19.953-44.575,28.403
		C732.775,653.394,747.714,643.846,761.392,632.771z"/>
	
		<linearGradient id="SVGID_6_" gradientUnits="userSpaceOnUse" x1="1043.5742" y1="423.2744" x2="1409.4063" y2="423.2744" gradientTransform="matrix(-1 0 0 1 1790.1094 0)">
		<stop  offset="0" style="stop-color:#EE3724"/>
		<stop  offset="0.1129" style="stop-color:#F15523"/>
		<stop  offset="0.2632" style="stop-color:#F36F21"/>
		<stop  offset="0.4214" style="stop-color:#F58020"/>
		<stop  offset="0.589" style="stop-color:#F68C1F"/>
		<stop  offset="0.7721" style="stop-color:#F7931E"/>
		<stop  offset="1" style="stop-color:#F8951D"/>
	</linearGradient>
	<path fill="url(#SVGID_6_)" d="M393.47,374.434c0,0,0,0,0-0.027c30.549-88.481,112.7-152.958,210.488-157.383
		c-20.088,16.065-32.936,40.794-32.936,68.526c0,16.121,4.345,31.22,11.935,44.201c48.599-28.107,104.012-45.755,163.177-49.859
		c0-0.617,0.027-1.261,0.08-1.877c0.055,0.617,0.107,1.233,0.135,1.851c0.134,1.877,0.187,3.781,0.187,5.685
		c0,7.404-0.911,14.618-2.655,21.485C725.402,463.13,612.407,590.233,463.686,629.525c-23.495-19.847-43.021-44.283-57.208-71.881
		c-3.459-6.731-6.598-13.623-9.414-20.704c-10.568-26.66-16.36-55.734-16.36-86.148C380.703,424.052,385.182,398.358,393.47,374.434
		z"/>
	
		<linearGradient id="SVGID_7_" gradientUnits="userSpaceOnUse" x1="1396.6396" y1="434.3188" x2="1766.3359" y2="434.3188" gradientTransform="matrix(-1 0 0 1 1790.1094 0)">
		<stop  offset="0" style="stop-color:#EE3724"/>
		<stop  offset="0.1129" style="stop-color:#F15523"/>
		<stop  offset="0.2632" style="stop-color:#F36F21"/>
		<stop  offset="0.4214" style="stop-color:#F58020"/>
		<stop  offset="0.589" style="stop-color:#F68C1F"/>
		<stop  offset="0.7721" style="stop-color:#F7931E"/>
		<stop  offset="1" style="stop-color:#F8951D"/>
	</linearGradient>
	<path fill="url(#SVGID_7_)" d="M393.47,374.462c0,0,0-0.047,0-0.075c-34.304-86.604-118.815-147.862-217.65-147.862
		c-2.252,0-4.505,0.027-6.731,0.107c-55.412,1.556-105.996,22.396-145.315,56.002c19.391-9.522,41.224-14.859,64.29-14.859
		c25.318,0,49.135,6.438,69.894,17.755c-1.448,13.545-2.199,27.304-2.199,41.223c0,65.202,16.388,126.54,45.299,180.154
		c0.913,1.689,1.851,3.379,2.789,5.069c0.806,1.448,1.637,2.925,2.469,4.344c1.287,2.254,2.601,4.48,3.942,6.681
		c0.778,1.314,1.583,2.601,2.387,3.915c0.858,1.396,1.743,2.815,2.656,4.209c0.777,1.236,1.555,2.44,2.359,3.677
		c0.537,0.833,1.1,1.662,1.636,2.466c0.912,1.368,1.851,2.764,2.79,4.131c2.95,4.318,5.979,8.557,9.146,12.74
		c1.099,1.502,2.226,2.977,3.379,4.479c6.84,8.905,14.108,17.515,21.725,25.748c1.207,1.342,2.441,2.656,3.674,3.943
		c1.314,1.396,2.655,2.79,3.997,4.158c7.59,7.776,15.502,15.231,23.763,22.313c1.18,1.045,2.36,2.064,3.566,3.057
		c8.771,7.403,17.917,14.43,27.357,21.001c0.188,0.136,0.349,0.27,0.537,0.401h0.053c1.368,0.967,2.762,1.934,4.157,2.872"/>
	
		<linearGradient id="SVGID_8_" gradientUnits="userSpaceOnUse" x1="1589.5098" y1="396.2393" x2="1634.8086" y2="396.2393" gradientTransform="matrix(-1 0 0 1 1790.1094 0)">
		<stop  offset="0" style="stop-color:#EE3724"/>
		<stop  offset="0.1129" style="stop-color:#F15523"/>
		<stop  offset="0.2632" style="stop-color:#F36F21"/>
		<stop  offset="0.4214" style="stop-color:#F58020"/>
		<stop  offset="0.589" style="stop-color:#F68C1F"/>
		<stop  offset="0.7721" style="stop-color:#F7931E"/>
		<stop  offset="1" style="stop-color:#F8951D"/>
	</linearGradient>
	<path fill="url(#SVGID_8_)" d="M200.6,506.929C171.688,453.314,155.3,391.975,155.3,326.773c0-13.92,0.75-27.679,2.199-41.224"/>
</g>
<g>
	<path fill="none" stroke="#010101" stroke-width="4" stroke-miterlimit="10" d="M997.507,401.322
		c-13.295-11.723-30.733-18.841-49.846-18.841c-41.617,0-75.367,33.747-75.367,75.366c0,41.62,33.75,75.366,75.367,75.366
		s75.365-33.746,75.365-75.366"/>
	<g>
		
			<line fill="none" stroke="#010101" stroke-width="4" stroke-miterlimit="10" x1="1060.71" y1="382.48" x2="1173.758" y2="382.48"/>
		<path fill="none" stroke="#010101" stroke-width="4" stroke-miterlimit="10" d="M1060.71,457.847"/>
		
			<line fill="none" stroke="#010101" stroke-width="4" stroke-miterlimit="10" x1="1173.758" y1="533.213" x2="1060.71" y2="533.213"/>
		
			<line fill="none" stroke="#010101" stroke-width="4" stroke-miterlimit="10" x1="1173.758" y1="457.847" x2="1060.71" y2="457.847"/>
	</g>
	<g>
		
			<line fill="none" stroke="#010101" stroke-width="4" stroke-miterlimit="10" x1="1362.172" y1="382.48" x2="1475.221" y2="382.48"/>
		<path fill="none" stroke="#010101" stroke-width="4" stroke-miterlimit="10" d="M1362.172,457.847"/>
		
			<line fill="none" stroke="#010101" stroke-width="4" stroke-miterlimit="10" x1="1475.221" y1="533.213" x2="1362.172" y2="533.213"/>
		
			<line fill="none" stroke="#010101" stroke-width="4" stroke-miterlimit="10" x1="1475.221" y1="457.847" x2="1362.172" y2="457.847"/>
	</g>
	<polyline fill="none" stroke="#010101" stroke-width="4" stroke-miterlimit="10" points="1512.903,533.213 1569.43,382.48 
		1625.953,533.213 	"/>
	<polyline fill="none" stroke="#010101" stroke-width="4" stroke-miterlimit="10" points="1211.441,533.213 1211.441,382.48 
		1324.49,533.213 1324.49,382.48 	"/>
	<polyline fill="none" stroke="#010101" stroke-width="4" stroke-miterlimit="10" points="1663.635,533.213 1663.635,382.48 
		1776.686,533.213 1776.686,382.48 	"/>
	<rect x="966.502" y="401.322" fill="none" stroke="#010101" stroke-width="4" stroke-miterlimit="10" width="0" height="0"/>
</g>
<line fill="none" stroke="#010101" stroke-width="4" stroke-miterlimit="10" x1="966.502" y1="462.033" x2="1023.026" y2="462.033"/>
</svg>
