<svg xmlns="http://www.w3.org/2000/svg" xmlns:xlink="http://www.w3.org/1999/xlink" viewBox="0 0 794.44 527.48"><defs><style>.cls-1{fill:url(#linear-gradient);}.cls-2{fill:url(#linear-gradient-2);}.cls-3{fill:url(#linear-gradient-3);}.cls-4{fill:url(#linear-gradient-4);}.cls-5{fill:url(#linear-gradient-6);}.cls-6{fill:url(#linear-gradient-7);}.cls-7{fill:url(#linear-gradient-8);}</style><linearGradient id="linear-gradient" x1="-3219" y1="263.73" x2="-2583.11" y2="263.73" gradientTransform="matrix(-1, 0, 0, 1, -2441.05, 0)" gradientUnits="userSpaceOnUse"><stop offset="0" stop-color="#ff2b0d"/><stop offset="0.09" stop-color="#ff410a"/><stop offset="0.24" stop-color="#ff5f07"/><stop offset="0.41" stop-color="#ff7704"/><stop offset="0.58" stop-color="#ff8802"/><stop offset="0.77" stop-color="#ff9200"/><stop offset="1" stop-color="#ff9500"/></linearGradient><linearGradient id="linear-gradient-2" x1="-3235.49" y1="462.8" x2="-3187.51" y2="462.8" xlink:href="#linear-gradient"/><linearGradient id="linear-gradient-3" x1="-3219" y1="297.57" x2="-2838.77" y2="297.57" xlink:href="#linear-gradient"/><linearGradient id="linear-gradient-4" x1="-3218.57" y1="227.24" x2="-2441.05" y2="227.24" xlink:href="#linear-gradient"/><linearGradient id="linear-gradient-6" x1="-3219.5" y1="222.02" x2="-2825.73" y2="222.02" xlink:href="#linear-gradient"/><linearGradient id="linear-gradient-7" x1="-2839.47" y1="233.91" x2="-2441.54" y2="233.91" xlink:href="#linear-gradient"/><linearGradient id="linear-gradient-8" x1="-2631.87" y1="192.92" x2="-2583.11" y2="192.92" xlink:href="#linear-gradient"/></defs><title>logo</title><g id="Layer_2" data-name="Layer 2"><g id="Layer_1-2" data-name="Layer 1"><path class="cls-1" d="M144.43,73.76a417.3,417.3,0,0,0-2.37,44.37A407.25,407.25,0,0,0,190.82,312c1,1.82,2,3.64,3,5.46.87,1.56,1.76,3.15,2.66,4.68q2.08,3.64,4.24,7.19c.84,1.41,1.7,2.8,2.57,4.21s1.88,3,2.86,4.53c.84,1.33,1.67,2.63,2.54,4,.58.89,1.18,1.79,1.76,2.66,1,1.47,2,3,3,4.45,3.18,4.65,6.44,9.21,9.84,13.71,1.18,1.62,2.4,3.2,3.64,4.82,7.36,9.58,15.19,18.85,23.38,27.71,1.3,1.44,2.63,2.86,4,4.24s2.86,3,4.3,4.47q12.25,12.56,25.58,24c1.27,1.13,2.54,2.22,3.84,3.29,9.44,8,19.28,15.53,29.45,22.6l.58.43h.06c1.47,1,3,2.08,4.47,3.09a407.43,407.43,0,0,0,228.81,69.89,407.24,407.24,0,0,0,194.75-49.22A252,252,0,0,1,473.51,444C633.58,401.71,755.21,264.9,775.1,96.88A94,94,0,0,0,778,73.76c0-2-.06-4.1-.2-6.12,0-.66-.09-1.33-.14-2-.06.66-.09,1.36-.09,2a406.24,406.24,0,0,0-175.64,53.67A94.48,94.48,0,0,1,624.49,0C519.24,4.76,430.81,74.16,397.93,169.4,361,76.18,270,10.25,163.66,10.25c-2.42,0-4.85,0-7.25.12"/><path class="cls-2" d="M794.44,447.52a407.92,407.92,0,0,1-48,30.57A251,251,0,0,0,794.44,447.52Z"/><path class="cls-3" d="M411.93,366.66a409.09,409.09,0,0,1,365.6-299,.56.56,0,0,1,.23,0c.14,2,.2,4.07.2,6.12A94,94,0,0,1,775.1,96.9C755.21,264.92,633.58,401.73,473.51,444a252,252,0,0,0,272.61,34.24,410.23,410.23,0,0,1-348.39,19.4"/><path class="cls-4" d="M473.51,444C633.58,401.71,755.21,264.9,775.1,96.88c1.13-9.64,1.93-19.4,2.42-29.22a406.24,406.24,0,0,0-175.64,53.67A94.48,94.48,0,0,1,624.49,0C519.24,4.76,430.81,74.16,397.93,169.4,361,76.18,270,10.25,163.66,10.25c-2.42,0-4.85,0-7.25.12A250.92,250.92,0,0,0,0,70.64a157.66,157.66,0,0,1,144.43,3.12,417.3,417.3,0,0,0-2.37,44.37A407.25,407.25,0,0,0,190.82,312c1,1.82,2,3.64,3,5.46.87,1.56,1.76,3.15,2.66,4.68q2.08,3.64,4.24,7.19c.84,1.41,1.7,2.8,2.57,4.21s1.88,3,2.86,4.53c.84,1.33,1.67,2.63,2.54,4,.58.89,1.18,1.79,1.76,2.66,1,1.47,2,3,3,4.45,3.18,4.65,6.44,9.21,9.84,13.71,1.18,1.62,2.4,3.2,3.64,4.82,7.36,9.58,15.19,18.85,23.38,27.71,1.3,1.44,2.63,2.86,4,4.24s2.86,3,4.3,4.47q12.25,12.56,25.58,24c1.27,1.13,2.54,2.22,3.84,3.29,9.44,8,19.28,15.53,29.45,22.6l.58.43h.4"/><path class="cls-2" d="M794.44,447.52a407.92,407.92,0,0,1-48,30.57A251,251,0,0,0,794.44,447.52Z"/><path class="cls-5" d="M398.42,169.45v0C431.3,74.18,519.73,4.78,625,0a94.48,94.48,0,0,0-22.6,121.34A406.24,406.24,0,0,1,778,67.69c0-.66,0-1.36.09-2,.06.66.12,1.33.14,2,.14,2,.2,4.07.2,6.12a94,94,0,0,1-2.86,23.12C755.7,264.92,634.08,401.73,474,444a252.51,252.51,0,0,1-61.58-77.37q-5.59-10.87-10.13-22.29a252.81,252.81,0,0,1-3.87-174.92Z"/><path class="cls-6" d="M398.42,169.48v-.08C361.5,76.18,270.53,10.25,164.15,10.25c-2.42,0-4.85,0-7.25.12A250.92,250.92,0,0,0,.49,70.64a157.66,157.66,0,0,1,144.43,3.12,417.3,417.3,0,0,0-2.37,44.37A407.25,407.25,0,0,0,191.32,312c1,1.82,2,3.64,3,5.46.87,1.56,1.76,3.15,2.66,4.68q2.08,3.64,4.24,7.19c.84,1.41,1.7,2.8,2.57,4.21s1.88,3,2.86,4.53c.84,1.33,1.67,2.63,2.54,4,.58.89,1.18,1.79,1.76,2.66,1,1.47,2,3,3,4.45,3.18,4.65,6.44,9.21,9.84,13.71,1.18,1.62,2.4,3.2,3.64,4.82,7.36,9.58,15.19,18.85,23.38,27.71,1.3,1.44,2.63,2.86,4,4.24s2.86,3,4.3,4.47q12.25,12.56,25.58,24c1.27,1.13,2.54,2.22,3.84,3.29,9.44,8,19.28,15.53,29.45,22.6l.58.43h.06c1.47,1,3,2.08,4.47,3.09"/><path class="cls-7" d="M190.82,312.06a407.25,407.25,0,0,1-48.76-193.91,417.3,417.3,0,0,1,2.37-44.37"/></g></g></svg>